<?xml version="1.0" standalone="no"?><!DOCTYPE svg PUBLIC "-//W3C//DTD SVG 1.1//EN" "http://www.w3.org/Graphics/SVG/1.1/DTD/svg11.dtd"><svg t="1752480097307" class="icon" viewBox="0 0 1024 1024" version="1.1" xmlns="http://www.w3.org/2000/svg" p-id="2838" xmlns:xlink="http://www.w3.org/1999/xlink" width="256" height="256"><path d="M383.84555 545.450321V89.970837c0-67.235625 78.002896-88.076276 130.068632-89.846894 39.814975-1.890254 126.288124 23.520505 126.288124 89.846894v455.479484z" fill="#cbd5e1" p-id="2839"></path><path d="M383.84555 478.573606v455.479484c0 67.235625 78.002896 88.076276 130.068632 89.846894 39.814975 1.890254 126.288124-23.520505 126.288124-89.846894V478.573606z" fill="#cbd5e1" p-id="2840"></path><path d="M478.573607 383.845549h455.479484c67.235625 0 88.076276 78.002896 89.846894 130.068632 1.890254 39.814975-23.520505 126.288124-89.846894 126.288124H478.573607z" fill="#cbd5e1" p-id="2841"></path><path d="M545.450322 383.845549H89.970838c-67.235625 0-88.076276 78.002896-89.846894 130.068632-1.890254 39.814975 23.520505 126.288124 89.846894 126.288124h455.479484z" fill="#cbd5e1" p-id="2842"></path></svg>
