<?xml version="1.0" standalone="no"?><!DOCTYPE svg PUBLIC "-//W3C//DTD SVG 1.1//EN" "http://www.w3.org/Graphics/SVG/1.1/DTD/svg11.dtd"><svg t="1753424513241" class="icon" viewBox="0 0 1024 1024" version="1.1" xmlns="http://www.w3.org/2000/svg" p-id="4017" xmlns:xlink="http://www.w3.org/1999/xlink" width="256" height="256"><path d="M736 448a32 32 0 0 1 32 32v224h224a32 32 0 1 1 0 64H768v224a32 32 0 1 1-64 0V768H480a32 32 0 1 1 0-64h224V480a32 32 0 0 1 32-32z m224-96a32 32 0 1 1-64 0V123.456a59.456 59.456 0 0 0-52.48-59.072L836.48 64H123.52a59.456 59.456 0 0 0-59.072 52.48L64 123.52v712.96c0 30.528 22.912 55.68 52.48 59.072l7.04 0.448H352a32 32 0 1 1 0 64H120A120 120 0 0 1 0 840V120C0 53.696 53.76 0 120 0h720c66.304 0 120 53.76 120 120v232z" fill="#94a3b8" p-id="4018"></path></svg>
