<?xml version="1.0" standalone="no"?><!DOCTYPE svg PUBLIC "-//W3C//DTD SVG 1.1//EN" "http://www.w3.org/Graphics/SVG/1.1/DTD/svg11.dtd"><svg t="1770606369254" class="icon" viewBox="0 0 1024 1024" version="1.1" xmlns="http://www.w3.org/2000/svg" p-id="7978" xmlns:xlink="http://www.w3.org/1999/xlink" width="256" height="256"><path d="M810.688 586.688a32 32 0 0 1 32 32v96h96a32 32 0 1 1 0 64h-96v96a32 32 0 0 1-64 0v-96h-96a32 32 0 1 1 0-64h96v-96a32 32 0 0 1 32-32z m63.936-448a96 96 0 0 1 96 96v297.408a32 32 0 0 1-64 0V458.688H117.312v330.688a32 32 0 0 0 32 32h384l6.4 0.64a32 32 0 0 1 0 62.72l-6.4 0.64h-384a96 96 0 0 1-96-96V234.688a96 96 0 0 1 96-96h725.312z m-725.312 64a32 32 0 0 0-32 32v160h789.312v-160a32 32 0 0 0-32-32H149.312z m64 53.312a42.688 42.688 0 1 1 0 85.312 42.688 42.688 0 0 1 0-85.312z m128 0a42.688 42.688 0 1 1 0 85.312 42.688 42.688 0 0 1 0-85.312z" p-id="7979" fill="#64748b"></path></svg>