<?xml version="1.0" standalone="no"?><!DOCTYPE svg PUBLIC "-//W3C//DTD SVG 1.1//EN" "http://www.w3.org/Graphics/SVG/1.1/DTD/svg11.dtd"><svg t="1771914248966" class="icon" viewBox="0 0 1024 1024" version="1.1" xmlns="http://www.w3.org/2000/svg" p-id="9059" xmlns:xlink="http://www.w3.org/1999/xlink" width="256" height="256"><path d="M897.024 580.608l-316.757333 316.871111a392.021333 392.021333 0 0 0 316.814222-316.871111h-0.056889zM480.142222 902.087111V122.026667c-211.968 17.863111-372.053333 201.898667-358.798222 414.72 12.231111 196.152889 168.163556 349.866667 358.798222 365.340444zM543.857778 121.799111v192.284445l149.276444-149.276445a386.958222 386.958222 0 0 0-149.276444-42.894222v-0.113778z m204.401778 77.994667L543.857778 404.081778v175.900444l290.360889-290.360889a392.874667 392.874667 0 0 0-85.959111-89.941333v0.113778z m118.727111 147.057778l-323.128889 323.128888v173.624889l358.4-358.4a390.371556 390.371556 0 0 0-35.271111-138.353777z m99.100444 136.533333c0 5.233778 0.796444 10.410667 0.796445 14.734222a455.68 455.68 0 0 1-426.325334 468.081778c-250.538667 15.644444-467.171556-175.160889-482.759111-425.528889C42.097778 290.133333 232.789333 74.353778 483.328 57.799111 733.752889 41.415111 950.442667 232.106667 966.087111 483.555556v-0.113778z" fill="#64748b" p-id="9060"></path></svg>