<?xml version="1.0" standalone="no"?><!DOCTYPE svg PUBLIC "-//W3C//DTD SVG 1.1//EN" "http://www.w3.org/Graphics/SVG/1.1/DTD/svg11.dtd"><svg t="1753428606561" class="icon" viewBox="0 0 1024 1024" version="1.1" xmlns="http://www.w3.org/2000/svg" p-id="6979" xmlns:xlink="http://www.w3.org/1999/xlink" width="256" height="256"><path d="M419.84 762.88c-25.6 0-46.08-20.48-46.08-46.08V419.84c0-25.6 20.48-46.08 46.08-46.08s46.08 20.48 46.08 46.08V716.8c0 25.6-20.48 46.08-46.08 46.08zM604.16 762.88c-25.6 0-46.08-20.48-46.08-46.08V419.84c0-25.6 20.48-46.08 46.08-46.08s46.08 20.48 46.08 46.08V716.8c0 25.6-20.48 46.08-46.08 46.08z" p-id="6980" fill="#d81e06"></path><path d="M967.68 148.48H721.92L660.48 35.84c-10.24-15.36-25.6-25.6-40.96-25.6H404.48c-15.36 0-30.72 10.24-40.96 25.6L302.08 148.48H56.32c-25.6 0-46.08 20.48-46.08 46.08s20.48 46.08 46.08 46.08h66.56v634.88c0 76.8 61.44 138.24 138.24 138.24h496.64c76.8 0 138.24-61.44 138.24-138.24V240.64h66.56c25.6 0 46.08-20.48 46.08-46.08s-20.48-46.08-40.96-46.08zM430.08 102.4h158.72l25.6 46.08H409.6l20.48-46.08z m378.88 773.12c0 25.6-20.48 46.08-46.08 46.08H261.12c-25.6 0-46.08-20.48-46.08-46.08V240.64h588.8v634.88z" p-id="6981" fill="#d81e06"></path></svg>