<?xml version="1.0" standalone="no"?><!DOCTYPE svg PUBLIC "-//W3C//DTD SVG 1.1//EN" "http://www.w3.org/Graphics/SVG/1.1/DTD/svg11.dtd"><svg t="1753085862294" class="icon" viewBox="0 0 1168 1024" version="1.1" xmlns="http://www.w3.org/2000/svg" p-id="1949" xmlns:xlink="http://www.w3.org/1999/xlink" width="292" height="256"><path d="M1124.957746 1024H43.267606a43.267606 43.267606 0 0 1-43.267606-43.267606V43.267606a43.267606 43.267606 0 0 1 43.267606-43.267606h540.84507a43.267606 43.267606 0 0 1 37.787042 22.282817L753.793803 259.605634H1124.957746a43.267606 43.267606 0 0 1 43.267606 43.267605v677.859155a43.267606 43.267606 0 0 1-43.267606 43.267606zM86.535211 937.464789h995.15493V346.140845H702.882254l-144.225353-259.605634H86.535211z" p-id="1950" fill="#64748b"></path><path d="M702.882254 346.140845l-144.225353-259.605634H1038.422535a43.267606 43.267606 0 0 1 43.267606 43.267606v216.338028z m2.812394-173.070422l48.099155 86.535211H995.15493V173.070423z" p-id="1951" fill="#64748b"></path></svg>