<?xml version="1.0" standalone="no"?><!DOCTYPE svg PUBLIC "-//W3C//DTD SVG 1.1//EN" "http://www.w3.org/Graphics/SVG/1.1/DTD/svg11.dtd"><svg t="1752482542436" class="icon" viewBox="0 0 1280 1024" version="1.1" xmlns="http://www.w3.org/2000/svg" p-id="32073" xmlns:xlink="http://www.w3.org/1999/xlink" width="320" height="256"><path d="M1199.775669 1023.99488H80.212598a79.359273 79.359273 0 0 1-80.212598-78.505947V78.510214A79.359273 79.359273 0 0 1 80.212598 0.004267h330.236973a85.332551 85.332551 0 0 1 50.346205 17.06651l175.785055 139.945384h563.194838a79.359273 79.359273 0 0 1 80.212598 78.505947v709.1135a79.359273 79.359273 0 0 1-80.212598 79.359272z m0-78.505947zM410.449571 78.510214H80.212598v866.978719h1119.563071V236.375433H637.434157a85.332551 85.332551 0 0 1-50.346205-17.919836z" fill="#64748b" p-id="32074"></path></svg>