<?xml version="1.0" standalone="no"?><!DOCTYPE svg PUBLIC "-//W3C//DTD SVG 1.1//EN" "http://www.w3.org/Graphics/SVG/1.1/DTD/svg11.dtd"><svg t="1772766277617" class="icon" viewBox="0 0 1024 1024" version="1.1" xmlns="http://www.w3.org/2000/svg" p-id="7516" xmlns:xlink="http://www.w3.org/1999/xlink" width="256" height="256"><path d="M850.845805 255.97539c-16.530184-18.113648-44.618178-19.386339-62.717028-2.841357-18.09885 16.530184-19.386339 44.618178-2.841356 62.717028C847.63448 384.132412 881.967539 472.702825 881.967539 565.239298c0 98.825934-38.476704 191.732376-108.356318 261.61199s-162.786056 108.356318-261.61199 108.356318-191.732376-38.476704-261.61199-108.356318S142.030923 664.065232 142.030923 565.239298s38.476704-191.732376 108.356318-261.61199c53.556612-53.556612 120.639266-88.644407 193.537821-102.126052v71.655462c0 25.439021 29.952634 39.024257 49.087395 22.272092l139.063688-121.763969c13.466846-11.79459 13.466846-32.749595 0-44.529386L493.012457 7.386284C473.877696-9.365881 443.925062 4.219355 443.925062 29.658376v81.807393c-96.694917 14.295575-185.931273 59.002546-256.314044 129.385316C100.964441 327.497663 53.238529 442.705794 53.238529 565.239298s47.725912 237.741635 134.372489 324.388212 201.854709 134.37249 324.388213 134.37249 237.741635-47.725912 324.388213-134.37249 134.37249-201.854709 134.372489-324.388212c0-114.74937-42.590752-224.585562-119.914128-309.263908z" p-id="7517" fill="#ffffff"></path></svg>