<?xml version="1.0" standalone="no"?><!DOCTYPE svg PUBLIC "-//W3C//DTD SVG 1.1//EN" "http://www.w3.org/Graphics/SVG/1.1/DTD/svg11.dtd"><svg t="1772766232865" class="icon" viewBox="0 0 1024 1024" version="1.1" xmlns="http://www.w3.org/2000/svg" p-id="6346" xmlns:xlink="http://www.w3.org/1999/xlink" width="256" height="256"><path d="M512 0C229.668571 0 0 229.668571 0 512s229.668571 512 512 512 512-229.668571 512-512-229.668571-512-512-512z m0 950.564571A439.076571 439.076571 0 0 1 73.435429 512 439.076571 439.076571 0 0 1 512 73.435429 439.076571 439.076571 0 0 1 950.564571 512 439.076571 439.076571 0 0 1 512 950.564571zM402.285714 292.571429a73.142857 73.142857 0 0 1 73.142857 73.142857v292.571428a73.142857 73.142857 0 1 1-146.285714 0V365.714286a73.142857 73.142857 0 0 1 73.142857-73.142857z m219.428572 0a73.142857 73.142857 0 0 1 73.142857 73.142857v292.571428a73.142857 73.142857 0 1 1-146.285714 0V365.714286a73.142857 73.142857 0 0 1 73.142857-73.142857z" fill="#ed6f5f" p-id="6347"></path></svg>